<?xml version="1.0" encoding="UTF-8" standalone="no"?>
<!-- Created with Inkscape (http://www.inkscape.org/) -->

<svg
   width="210mm"
   height="297mm"
   viewBox="0 0 210 297"
   version="1.1"
   id="svg2767"
   xml:space="preserve"
   inkscape:version="1.2.1 (9c6d41e410, 2022-07-14)"
   sodipodi:docname="logo.svg"
   inkscape:export-filename="icon-white-background.png"
   inkscape:export-xdpi="10.335613"
   inkscape:export-ydpi="10.335613"
   xmlns:inkscape="http://www.inkscape.org/namespaces/inkscape"
   xmlns:sodipodi="http://sodipodi.sourceforge.net/DTD/sodipodi-0.dtd"
   xmlns="http://www.w3.org/2000/svg"
   xmlns:svg="http://www.w3.org/2000/svg"><sodipodi:namedview
     id="namedview2769"
     pagecolor="#ffffff"
     bordercolor="#000000"
     borderopacity="0.25"
     inkscape:showpageshadow="2"
     inkscape:pageopacity="0.0"
     inkscape:pagecheckerboard="0"
     inkscape:deskcolor="#d1d1d1"
     inkscape:document-units="mm"
     showgrid="false"
     inkscape:zoom="0.28441257"
     inkscape:cx="-602.99725"
     inkscape:cy="144.15678"
     inkscape:window-width="1920"
     inkscape:window-height="1017"
     inkscape:window-x="-8"
     inkscape:window-y="-8"
     inkscape:window-maximized="1"
     inkscape:current-layer="layer1" /><defs
     id="defs2764" /><g
     inkscape:label="Layer 1"
     inkscape:groupmode="layer"
     id="layer1"><rect
       style="fill:#ffffff;fill-opacity:1;stroke:#000000;stroke-width:0.838;stroke-dasharray:none;stroke-linejoin:bevel;paint-order:normal;stroke-linecap:round;opacity:1"
       id="rect4085"
       width="156.44342"
       height="156.44342"
       x="11.126049"
       y="-12.012639"
       inkscape:export-filename="icon-white-background.png"
       inkscape:export-xdpi="10.335613"
       inkscape:export-ydpi="10.335613" /><path
       style="fill:#000000;stroke-width:0.264583"
       d="m 81.314397,121.94243 c -3.34802,-0.84499 -6.55925,-3.18903 -7.6038,-5.55041 -1.71854,-3.88505 -0.91889,-8.2493 2.00539,-10.9448 2.70461,-2.49303 7.1751,-3.74871 11.96304,-3.36022 5.567024,0.4517 9.066474,2.54381 10.873864,6.50081 0.89977,1.9699 0.94067,5.01496 0.0964,7.17468 -1.03365,2.64408 -3.65268,4.829 -7.157584,5.97118 -1.78596,0.58201 -8.17882,0.71315 -10.17729,0.20876 z m 8.71993,-2.63303 c 3.479444,-1.04716 5.437664,-3.4728 5.569094,-6.8984 0.1881,-4.90318 -3.54632,-7.88786 -9.813264,-7.84311 -3.98861,0.0285 -6.77103,1.29832 -8.39704,3.83223 -0.82682,1.28849 -0.87669,1.50203 -0.87669,3.75351 0,2.13253 0.0783,2.52046 0.7335,3.6351 1.1757,2.00006 3.17978,3.27412 6.01337,3.82291 1.95487,0.37861 4.9535,0.24476 6.77103,-0.30224 z m -37.091959,2.40256 c -0.078,-0.20327 -0.104035,-3.15007 -0.05784,-6.54843 0.08296,-6.10362 0.09255,-6.19509 0.787908,-7.51239 1.803559,-3.41671 5.619647,-5.41333 10.346371,-5.41333 h 2.07557 l -0.0806,1.24595 -0.0806,1.24595 -1.32291,-0.065 c -2.787296,-0.13687 -5.868202,1.23915 -7.217466,3.22353 -0.863005,1.26923 -1.113639,3.31407 -1.11538,9.10006 l -0.0015,5.09322 h -1.595803 c -1.12206,0 -1.637908,-0.10972 -1.737629,-0.36959 z m 54.259602,0.0516 c -0.0724,-0.1889 -0.10058,-6.3561 -0.0627,-13.7049 l 0.0688,-13.361459 h 1.71979 1.71979 l 0.0699,8.089559 0.0699,8.08957 0.85614,-0.11494 c 0.87243,-0.11713 3.08265,-1.67934 8.53043,-6.02943 l 2.79216,-2.22955 h 2.10896 c 1.15993,0 2.10238,0.0893 2.09434,0.19844 -0.0151,0.20415 -2.5479,2.25903 -6.73152,5.46121 -1.31009,1.00276 -2.54565,1.97435 -2.74568,2.15909 -0.30213,0.27902 0.53775,1.26863 4.96093,5.84541 2.92855,3.03023 5.32464,5.60075 5.32464,5.71226 0,0.11152 -0.94575,0.20275 -2.10167,0.20275 -1.84276,0 -2.15016,-0.0692 -2.49536,-0.56209 -0.21654,-0.30915 -2.04669,-2.24391 -4.06701,-4.29948 -2.02031,-2.05556 -3.85705,-4.00763 -4.08164,-4.33793 l -0.40835,-0.60055 -1.42663,0.66411 c -0.78465,0.36526 -1.6915,0.66527 -2.01523,0.66669 -0.58028,0.003 -0.58962,0.0614 -0.66146,4.16978 l -0.0729,4.16718 -1.65707,0.0789 c -1.1738,0.0559 -1.69544,-0.0213 -1.78863,-0.26458 z M 146.2101,93.094141 c -0.9591,-0.61452 -2.29887,-1.41279 -2.97725,-1.77392 l -1.23344,-0.65661 -0.007,-22.79723 c -0.007,-21.75109 -0.0289,-22.78161 -0.47519,-22.45716 -1.02167,0.74273 -16.37681,12.23416 -17.24858,12.90844 -0.51232,0.39627 -3.60456,2.73112 -6.87163,5.18856 -3.26707,2.45743 -6.10878,4.59755 -6.31491,4.7558 -0.29668,0.22778 0.44608,0.79992 3.56434,2.74559 2.16652,1.35182 5.01069,3.15148 6.32038,3.99924 2.57071,1.66403 6.07736,3.89924 11.87995,7.57252 2.02283,1.28054 3.80876,2.4161 3.96875,2.52348 0.29335,0.1969 -2.90028,3.37095 -3.39557,3.37475 -0.23036,0.002 -6.84252,-4.01223 -9.8073,-5.95366 -0.72761,-0.47645 -3.81274,-2.39723 -6.85586,-4.26838 -3.04311,-1.87116 -6.61151,-4.0688 -7.92976,-4.88364 l -2.39683,-1.48154 -1.19836,0.89604 c -0.6591,0.49281 -1.8532,1.35927 -2.65357,1.92545 -0.80036,0.56619 -4.121829,3.03795 -7.381039,5.49282 l -5.925834,4.46338 -8.56516,-6.43827 -8.56516,-6.43827 -0.85483,0.64375 c -0.47017,0.35406 -1.92641,1.29479 -3.23609,2.09052 -8.070822,4.9036 -20.893377,12.85026 -22.188089,13.75088 l -0.756832,0.52646 -1.690564,-1.67554 c -0.929801,-0.92154 -1.690555,-1.74458 -1.690555,-1.82897 0,-0.0844 0.922735,-0.7208 2.050521,-1.41425 1.127786,-0.69344 2.909909,-1.81846 3.96027,-2.50004 1.050361,-0.68157 3.669736,-2.35309 5.820833,-3.71449 2.151097,-1.3614 4.68499,-2.9797 5.630875,-3.59622 0.945886,-0.61652 2.850886,-1.81991 4.233334,-2.6742 1.382447,-0.85429 2.947597,-1.86318 3.478097,-2.24199 l 0.96456,-0.68874 L 52.27942,56.793731 36.696634,45.118791 v 22.69685 22.69686 l -2.933882,1.78224 c -1.613636,0.98024 -2.98336,1.73277 -3.043833,1.67229 -0.06047,-0.0605 -0.07968,-13.69711 -0.04268,-30.30363 l 0.06727,-30.19369 4.101041,3.01432 c 8.193484,6.02231 35.237237,26.23551 37.047127,27.68998 0.64988,0.52226 1.17784,0.7529 1.4923,0.65192 0.47341,-0.15203 2.56444,-1.42522 8.03566,-4.89278 1.62143,-1.02764 2.57293,-1.78649 2.42522,-1.9342 -0.13368,-0.13369 -3.08743,-2.01112 -6.56387,-4.17208 -3.47645,-2.16096 -6.97566,-4.34312 -7.77602,-4.84924 -1.75211,-1.10797 -11.362704,-7.13344 -20.708684,-12.98353 -3.749931,-2.34726 -7.798056,-4.88767 -8.995832,-5.64535 -1.197777,-0.75767 -2.803586,-1.7697 -3.56847,-2.24896 -0.764881,-0.47924 -3.384256,-2.135376 -5.820833,-3.680289 -2.436574,-1.544912 -4.668263,-2.932115 -4.959305,-3.082671 -0.527272,-0.272759 -0.529034,-0.194508 -0.491998,21.85893 l 0.03717,22.13267 1.881058,2.16243 1.881061,2.16243 v 3.98914 c 0,2.19402 -0.0905,3.98913 -0.201121,3.98913 -0.110614,0 -2.372801,-2.17407 -5.027083,-4.83126 l -4.825963,-4.83126 v -28.90311 c 0,-15.896717 0.05605,-28.90312 0.124556,-28.90312 0.06851,0 0.634052,0.343321 1.25677,0.762937 0.622719,0.419616 4.227841,2.721416 8.011382,5.11511 17.182015,10.870373 20.24018,12.810633 22.224999,14.100683 1.164167,0.75667 3.843073,2.44427 5.953125,3.75022 4.015991,2.48558 14.510928,9.13002 17.462498,11.05567 0.94589,0.61711 4.51776,2.87567 7.9375,5.01901 3.41974,2.14335 6.54513,4.12871 6.94531,4.4119 0.71413,0.50536 0.74108,0.50566 1.45521,0.0161 1.26328,-0.86605 6.767714,-4.41291 7.871354,-5.07201 1.31281,-0.78401 6.776039,-4.23599 15.081249,-9.52918 6.05669,-3.86012 8.80566,-5.59328 12.03854,-7.59 0.80037,-0.49432 2.82443,-1.77549 4.49792,-2.84704 1.67349,-1.07154 4.11427,-2.63423 5.42396,-3.472641 1.30968,-0.838412 2.97656,-1.906673 3.70416,-2.373919 0.72761,-0.467243 2.33495,-1.47525 3.57188,-2.240012 1.23693,-0.764765 2.84427,-1.771441 3.57187,-2.23706 7.57304,-4.846251 13.94036,-8.869754 14.03666,-8.869754 0.0652,0 0.11769,13.007578 0.11663,28.905726 l -0.002,28.90573 -4.94447,4.96093 c -2.71953,2.72852 -4.98085,4.96094 -5.02523,4.96094 -0.0444,0 -0.0807,-1.91359 -0.0807,-4.25243 v -4.25243 l 1.16143,-1.23767 c 0.63878,-0.68072 1.47222,-1.61205 1.85208,-2.06962 l 0.69066,-0.83195 V 43.140371 21.028695 l -3.24114,2.009143 c -1.78263,1.105027 -3.53881,2.211281 -3.90261,2.458341 -0.3638,0.24706 -4.23333,2.688962 -8.59896,5.426442 -10.12261,6.34743 -13.33129,8.36855 -16.34979,10.29854 -1.33959,0.85652 -2.94089,1.86856 -3.55845,2.24896 -0.61755,0.38041 -2.73926,1.70368 -4.7149,2.94061 -5.80203,3.63257 -8.0403,5.02024 -10.56644,6.55094 -1.30969,0.7936 -2.797969,1.71293 -3.307289,2.04297 -0.50932,0.33003 -1.80129,1.15618 -2.87104,1.83588 l -1.94499,1.23583 1.41583,0.99014 c 2.04476,1.42999 9.213349,5.86507 9.479929,5.86507 0.12427,0 6.22109,-4.49461 13.54849,-9.98802 7.32741,-5.49341 15.16574,-11.3501 17.41852,-13.01487 2.25278,-1.66476 5.74723,-4.26006 7.76544,-5.76732 2.01822,-1.50727 3.71536,-2.69461 3.77144,-2.63853 0.0561,0.0561 0.0717,13.73396 0.0347,30.39529 l -0.0673,30.29334 z M 92.345801,74.910661 c 1.62582,-1.20547 4.23274,-3.13353 5.79314,-4.2846 1.56041,-1.15106 2.810569,-2.1152 2.778129,-2.14253 -0.0324,-0.0273 -2.653589,-1.66319 -5.824779,-3.63524 l -5.765804,-3.58554 -4.28836,2.65877 c -2.3586,1.46231 -4.97513,3.10384 -5.8145,3.64783 l -1.52613,0.98908 2.67562,1.95689 c 1.47159,1.07628 4.06335,2.99564 5.75946,4.26524 1.69612,1.26959 3.12285,2.31139 3.17051,2.3151 0.0477,0.004 1.41689,-0.97954 3.042714,-2.185 z"
       id="path2904"
       inkscape:export-filename="logo.png"
       inkscape:export-xdpi="96"
       inkscape:export-ydpi="96" /><path
       style="fill:#ffffff;stroke-width:0.264583;stroke:#ffffff;stroke-opacity:1;fill-opacity:1"
       d="m 83.134077,274.34916 c -3.34802,-0.84499 -6.55925,-3.18903 -7.6038,-5.55041 -1.71854,-3.88505 -0.91889,-8.2493 2.00539,-10.9448 2.70461,-2.49303 7.1751,-3.74871 11.96304,-3.36022 5.567024,0.4517 9.066474,2.54381 10.873863,6.50081 0.89977,1.9699 0.94067,5.01496 0.0964,7.17468 -1.033649,2.64408 -3.652679,4.829 -7.157583,5.97118 -1.78596,0.58201 -8.17882,0.71315 -10.17729,0.20876 z m 8.71993,-2.63303 c 3.479444,-1.04716 5.437664,-3.4728 5.569094,-6.8984 0.1881,-4.90318 -3.54632,-7.88786 -9.813264,-7.84311 -3.98861,0.0285 -6.77103,1.29832 -8.39704,3.83223 -0.82682,1.28849 -0.87669,1.50203 -0.87669,3.75351 0,2.13253 0.0783,2.52046 0.7335,3.6351 1.1757,2.00006 3.17978,3.27412 6.01337,3.82291 1.95487,0.37861 4.9535,0.24476 6.77103,-0.30224 z m -37.091959,2.40256 c -0.078,-0.20327 -0.104035,-3.15007 -0.05784,-6.54843 0.08296,-6.10362 0.09255,-6.19509 0.787908,-7.51239 1.803559,-3.41671 5.619647,-5.41333 10.346371,-5.41333 h 2.07557 l -0.0806,1.24595 -0.0806,1.24595 -1.32291,-0.065 c -2.787296,-0.13687 -5.868202,1.23915 -7.217466,3.22353 -0.863005,1.26923 -1.113639,3.31407 -1.11538,9.10006 l -0.0015,5.09322 h -1.595803 c -1.12206,0 -1.637908,-0.10972 -1.737629,-0.36959 z m 54.259602,0.0516 c -0.0724,-0.1889 -0.10058,-6.3561 -0.0627,-13.7049 l 0.0688,-13.36146 h 1.71979 1.71979 l 0.0699,8.08956 0.0699,8.08957 0.85614,-0.11494 c 0.87243,-0.11713 3.08265,-1.67934 8.53043,-6.02943 l 2.79216,-2.22955 h 2.10896 c 1.15993,0 2.10238,0.0893 2.09434,0.19844 -0.0151,0.20415 -2.5479,2.25903 -6.73152,5.46121 -1.31009,1.00276 -2.54565,1.97435 -2.74568,2.15909 -0.30213,0.27902 0.53775,1.26863 4.96093,5.84541 2.92855,3.03023 5.32464,5.60075 5.32464,5.71226 0,0.11152 -0.94575,0.20275 -2.10167,0.20275 -1.84276,0 -2.15016,-0.0692 -2.49536,-0.56209 -0.21654,-0.30915 -2.04669,-2.24391 -4.06701,-4.29948 -2.02031,-2.05556 -3.85705,-4.00763 -4.08164,-4.33793 l -0.40835,-0.60055 -1.42663,0.66411 c -0.78465,0.36526 -1.6915,0.66527 -2.01523,0.66669 -0.58028,0.003 -0.58962,0.0614 -0.66146,4.16978 l -0.0729,4.16718 -1.65707,0.0789 c -1.1738,0.0559 -1.69544,-0.0213 -1.78863,-0.26458 z m 39.00813,-28.66942 c -0.9591,-0.61452 -2.29887,-1.41279 -2.97725,-1.77392 l -1.23344,-0.65661 -0.007,-22.79723 c -0.007,-21.75109 -0.0289,-22.78161 -0.47519,-22.45716 -1.02167,0.74273 -16.37681,12.23416 -17.24858,12.90844 -0.51232,0.39627 -3.60456,2.73112 -6.87163,5.18856 -3.26707,2.45743 -6.10878,4.59755 -6.31491,4.7558 -0.29668,0.22778 0.44608,0.79992 3.56434,2.74559 2.16652,1.35182 5.01069,3.15148 6.32038,3.99924 2.57071,1.66403 6.07736,3.89924 11.87995,7.57252 2.02283,1.28054 3.80876,2.4161 3.96875,2.52348 0.29335,0.1969 -2.90028,3.37095 -3.39557,3.37475 -0.23036,0.002 -6.84252,-4.01223 -9.8073,-5.95366 -0.72761,-0.47645 -3.81274,-2.39723 -6.85586,-4.26838 -3.04311,-1.87116 -6.61151,-4.0688 -7.92976,-4.88364 l -2.39683,-1.48154 -1.19836,0.89604 c -0.6591,0.49281 -1.8532,1.35927 -2.65357,1.92545 -0.80036,0.56619 -4.12183,3.03795 -7.381039,5.49282 l -5.925834,4.46338 -8.56516,-6.43827 -8.56516,-6.43827 -0.85483,0.64375 c -0.47017,0.35406 -1.92641,1.29479 -3.23609,2.09052 -8.070822,4.9036 -20.893377,12.85026 -22.188089,13.75088 l -0.756832,0.52646 -1.690564,-1.67554 c -0.929801,-0.92154 -1.690555,-1.74458 -1.690555,-1.82897 0,-0.0844 0.922735,-0.7208 2.050521,-1.41425 1.127786,-0.69344 2.909909,-1.81846 3.96027,-2.50004 1.050361,-0.68157 3.669736,-2.35309 5.820833,-3.71449 2.151097,-1.3614 4.68499,-2.9797 5.630875,-3.59622 0.945886,-0.61652 2.850886,-1.81991 4.233334,-2.6742 1.382447,-0.85429 2.947597,-1.86318 3.478097,-2.24199 l 0.96456,-0.68874 L 54.0991,209.20046 38.516314,197.52552 v 22.69685 22.69686 l -2.933882,1.78224 c -1.613636,0.98024 -2.98336,1.73277 -3.043833,1.67229 -0.06047,-0.0605 -0.07968,-13.69711 -0.04268,-30.30363 l 0.06727,-30.19369 4.101041,3.01432 c 8.193484,6.02231 35.237237,26.23551 37.047127,27.68998 0.64988,0.52226 1.17784,0.7529 1.4923,0.65192 0.47341,-0.15203 2.56444,-1.42522 8.03566,-4.89278 1.62143,-1.02764 2.57293,-1.78649 2.42522,-1.9342 -0.13368,-0.13369 -3.08743,-2.01112 -6.56387,-4.17208 -3.47645,-2.16096 -6.97566,-4.34312 -7.77602,-4.84924 -1.75211,-1.10797 -11.362704,-7.13344 -20.708684,-12.98353 -3.749931,-2.34726 -7.798056,-4.88767 -8.995832,-5.64535 -1.197777,-0.75767 -2.803586,-1.7697 -3.56847,-2.24896 -0.764881,-0.47924 -3.384256,-2.13537 -5.820833,-3.68029 -2.436574,-1.54491 -4.668263,-2.93211 -4.959305,-3.08267 -0.527272,-0.27276 -0.529034,-0.1945 -0.491998,21.85893 l 0.03717,22.13267 1.881058,2.16243 1.881061,2.16243 v 3.98914 c 0,2.19402 -0.0905,3.98913 -0.201121,3.98913 -0.110614,0 -2.372801,-2.17407 -5.027083,-4.83126 l -4.825963,-4.83126 v -28.90311 c 0,-15.89671 0.05605,-28.90312 0.124556,-28.90312 0.06851,0 0.634052,0.34332 1.25677,0.76294 0.622719,0.41962 4.227841,2.72142 8.011382,5.11511 17.182015,10.87037 20.24018,12.81063 22.224999,14.10068 1.164167,0.75667 3.843073,2.44427 5.953125,3.75022 4.015991,2.48558 14.510928,9.13002 17.462498,11.05567 0.94589,0.61711 4.51776,2.87567 7.9375,5.01901 3.41974,2.14335 6.54513,4.12871 6.94531,4.4119 0.71413,0.50536 0.74108,0.50566 1.45521,0.0161 1.26328,-0.86605 6.767714,-4.41291 7.871354,-5.07201 1.312809,-0.78401 6.776039,-4.23599 15.081249,-9.52918 6.05669,-3.86012 8.80566,-5.59328 12.03854,-7.59 0.80037,-0.49432 2.82443,-1.77549 4.49792,-2.84704 1.67349,-1.07154 4.11427,-2.63423 5.42396,-3.47264 1.30968,-0.83841 2.97656,-1.90667 3.70416,-2.37392 0.72761,-0.46724 2.33495,-1.47525 3.57188,-2.24001 1.23693,-0.76476 2.84427,-1.77144 3.57187,-2.23706 7.57304,-4.84625 13.94036,-8.86975 14.03666,-8.86975 0.0652,0 0.11769,13.00758 0.11663,28.90572 l -0.002,28.90573 -4.94447,4.96093 c -2.71953,2.72852 -4.98085,4.96094 -5.02523,4.96094 -0.0444,0 -0.0807,-1.91359 -0.0807,-4.25243 v -4.25243 l 1.16143,-1.23767 c 0.63878,-0.68072 1.47222,-1.61205 1.85208,-2.06962 l 0.69066,-0.83195 V 195.5471 173.43543 l -3.24114,2.00914 c -1.78263,1.10503 -3.53881,2.21128 -3.90261,2.45834 -0.3638,0.24706 -4.23333,2.68896 -8.59896,5.42644 -10.12261,6.34743 -13.33129,8.36855 -16.34979,10.29854 -1.33959,0.85652 -2.94089,1.86856 -3.55845,2.24896 -0.61755,0.38041 -2.73926,1.70368 -4.7149,2.94061 -5.80203,3.63257 -8.0403,5.02024 -10.56644,6.55094 -1.30969,0.7936 -2.79797,1.71293 -3.30729,2.04297 -0.50932,0.33003 -1.801289,1.15618 -2.871039,1.83588 l -1.94499,1.23583 1.41583,0.99014 c 2.04476,1.42999 9.213349,5.86507 9.479929,5.86507 0.12427,0 6.22109,-4.49461 13.54849,-9.98802 7.32741,-5.49341 15.16574,-11.3501 17.41852,-13.01487 2.25278,-1.66476 5.74723,-4.26006 7.76544,-5.76732 2.01822,-1.50727 3.71536,-2.69461 3.77144,-2.63853 0.0561,0.0561 0.0717,13.73396 0.0347,30.39529 l -0.0673,30.29334 z M 94.165481,227.31739 c 1.62582,-1.20547 4.23274,-3.13353 5.79314,-4.2846 1.560409,-1.15106 2.810569,-2.1152 2.778129,-2.14253 -0.0324,-0.0273 -2.65359,-1.66319 -5.824779,-3.63524 l -5.765804,-3.58554 -4.28836,2.65877 c -2.3586,1.46231 -4.97513,3.10384 -5.8145,3.64783 l -1.52613,0.98908 2.67562,1.95689 c 1.47159,1.07628 4.06335,2.99564 5.75946,4.26524 1.69612,1.26959 3.12285,2.31139 3.17051,2.3151 0.0477,0.004 1.41689,-0.97954 3.042714,-2.185 z"
       id="path2904-4"
       inkscape:export-filename="logo-white.png"
       inkscape:export-xdpi="96"
       inkscape:export-ydpi="96" /></g></svg>
